<?xml version="1.0" encoding="utf-8"?>
<!-- Generator: Adobe Illustrator 16.0.0, SVG Export Plug-In . SVG Version: 6.00 Build 0)  -->
<!DOCTYPE svg PUBLIC "-//W3C//DTD SVG 1.1//EN" "http://www.w3.org/Graphics/SVG/1.1/DTD/svg11.dtd">
<svg version="1.1" id="Capa_1" xmlns="http://www.w3.org/2000/svg" xmlns:xlink="http://www.w3.org/1999/xlink" x="0px" y="0px"
	 width="841.89px" height="595.28px" viewBox="0 0 841.89 595.28" enable-background="new 0 0 841.89 595.28" xml:space="preserve">
<g>
	<path fill="#FFFFFF" d="M146.125,297.696c0-17.105,6.604-32.695,17.393-44.362l-13.397-13.397
		c-6.889,7.314-12.359,15.691-16.271,24.941c-4.398,10.4-6.629,21.441-6.629,32.818c0,11.376,2.23,22.417,6.629,32.816
		c2.264,5.353,5.053,10.41,8.332,15.143l13.674-13.675C149.689,322.005,146.125,310.26,146.125,297.696z"/>
	<path fill="#FFFFFF" d="M212.035,259.632c6.893,0,13.506,1.819,19.291,5.232l-52.105,52.152c-0.012-0.02-0.022-0.039-0.033-0.059
		l-13.842,13.844c1.849,2.596,3.926,5.058,6.226,7.357c10.808,10.808,25.178,16.76,40.463,16.76c15.285,0,29.655-5.952,40.463-16.76
		L238.95,324.61c-7.189,7.189-16.748,11.149-26.915,11.149c-6.878,0-13.476-1.812-19.252-5.209l66.486-66.548l-6.771-6.771
		c-10.808-10.808-25.178-16.76-40.463-16.76c-14.302,0-27.802,5.212-38.333,14.736l13.575,13.574
		C194.168,262.861,202.853,259.632,212.035,259.632z"/>
	<path fill="#FFFFFF" d="M162.116,325.721l14.368-14.368c-1.65-4.301-2.513-8.912-2.513-13.656c0-9.182,3.229-17.867,9.15-24.76
		l-13.575-13.574c-9.523,10.531-14.735,24.031-14.735,38.334C154.811,307.673,157.349,317.259,162.116,325.721z"/>
</g>
<g>
	<path d="M329.283,312.563h-25.176c0-11.194,0-22.438,0-33.632h25.176v6.149h-18.881v7.736h18.208v5.908h-18.208v7.592h18.881
		V312.563z"/>
	<path d="M332.663,278.932h25.846v2.979l-17.439,24.647h17.439v6.005h-26.278v-3.652l17.054-24.021h-16.622V278.932z"/>
	<path d="M361.696,294.21h17.727v5.381h-17.727V294.21z"/>
	<path d="M420.706,312.563h-5.382l-4.18-10.57l-3.556-10.617l-3.508,10.713l-4.084,10.475h-5.38l-12.347-33.632h7.11l7.927,24.263
		l8.167-24.263h4.133l8.406,24.263l7.688-24.263h7.111L420.706,312.563z"/>
	<path d="M442.161,282.2c0,4.564-6.919,4.564-6.919,0S442.161,277.636,442.161,282.2z M435.773,288.782v23.781h5.859v-23.781
		H435.773z"/>
	<path d="M448.845,312.563v-18.209h-4.421v-5.141h4.421v-1.586c0-6.342,4.275-9.273,9.033-9.273c2.064,0,4.227,0.674,6.149,1.924
		l-2.164,4.371c-1.248-0.815-2.401-1.248-3.603-1.248c-2.017,0-3.555,1.344-3.555,4.227v1.586h6.966v5.141h-6.966v18.209H448.845z"
		/>
	<path d="M472.203,282.2c0,4.564-6.919,4.564-6.919,0S472.203,277.636,472.203,282.2z M465.813,288.782v23.781h5.862v-23.781
		H465.813z"/>
	<path d="M504.736,288.685c0,2.596-1.249,5.094-4.373,6.486c3.94,1.201,5.381,5.381,5.381,7.495c0,7.495-5.62,9.897-12.587,9.897
		c-5.332,0-10.617,0-15.951,0v-33.632c5.285,0,10.619,0,15.951,0C499.788,278.932,504.736,281.911,504.736,288.685z
		 M483.451,292.432h9.706c3.989,0,5.285-1.68,5.285-3.603c0-1.537-1.25-4.131-5.285-4.131h-9.706V292.432z M483.451,306.653h9.706
		c2.594,0,6.294-0.863,6.294-4.035c0-3.027-3.7-4.611-6.294-4.611h-9.706V306.653z"/>
	<path d="M515.227,288.878l0.433,2.738c1.826-2.932,4.275-3.364,6.678-3.364c2.45,0,4.806,0.962,6.103,2.259l-2.643,5.092
		c-1.201-1.007-2.307-1.537-4.229-1.537c-3.074,0-5.908,1.635-5.908,6.007v12.491h-5.86v-23.686H515.227z"/>
	<path d="M554.201,300.745c0,6.82-4.658,12.346-12.347,12.346c-7.687,0-12.298-5.525-12.298-12.346
		c0-6.775,4.708-12.349,12.25-12.349S554.201,293.97,554.201,300.745z M535.416,300.745c0,3.603,2.162,6.965,6.438,6.965
		s6.438-3.362,6.438-6.965c0-3.557-2.497-7.017-6.438-7.017C537.627,293.729,535.416,297.188,535.416,300.745z"/>
	<path d="M577.037,288.878h5.622v23.686h-5.523l-0.289-3.461c-1.347,2.788-5.043,4.133-7.688,4.18
		c-7.014,0.05-12.201-4.275-12.201-12.586c0-8.168,5.427-12.444,12.347-12.395c3.173,0,6.196,1.488,7.543,3.843L577.037,288.878z
		 M562.817,300.696c0,4.516,3.122,7.205,7.014,7.205c9.226,0,9.226-14.363,0-14.363C565.939,293.538,562.817,296.18,562.817,300.696
		z"/>
	<path d="M612.223,278.981v33.582h-5.478l-0.383-3.267c-1.827,2.834-4.758,3.794-7.64,3.794c-6.969,0-12.203-4.611-12.203-12.395
		c0-8.168,5.141-12.395,12.058-12.395c2.499,0,6.392,1.346,7.785,3.794v-13.114H612.223z M592.38,300.696
		c0,4.131,2.981,6.967,6.725,6.967c3.701,0,6.874-2.691,6.874-6.967c0-4.131-3.173-6.918-6.874-6.918
		C595.361,293.778,592.38,296.421,592.38,300.696z"/>
	<path d="M637.653,309.537c-2.738,2.69-5.621,3.745-9.126,3.745c-6.869,0-12.589-4.131-12.589-12.537
		c0-8.408,5.72-12.54,12.589-12.54c3.359,0,5.957,0.961,8.551,3.507l-3.7,3.891c-1.393-1.248-3.122-1.874-4.758-1.874
		c-3.938,0-6.821,2.884-6.821,7.017c0,4.517,3.074,6.918,6.729,6.918c1.874,0,3.747-0.529,5.188-1.969L637.653,309.537z"/>
	<path d="M659.044,288.878h5.622v23.686h-5.523l-0.29-3.461c-1.346,2.788-5.043,4.133-7.688,4.18
		c-7.014,0.05-12.201-4.275-12.201-12.586c0-8.168,5.427-12.444,12.347-12.395c3.168,0,6.196,1.488,7.542,3.843L659.044,288.878z
		 M644.824,300.696c0,4.516,3.122,7.205,7.014,7.205c9.225,0,9.225-14.363,0-14.363C647.946,293.538,644.824,296.18,644.824,300.696
		z"/>
	<path d="M685.102,295.171c-1.682-1.585-3.603-2.113-5.859-2.113c-2.789,0-4.326,0.865-4.326,2.354c0,1.537,1.392,2.402,4.42,2.596
		c4.467,0.287,10.135,1.297,10.135,7.59c0,4.18-3.41,7.783-10.182,7.783c-3.747,0-7.496-0.625-10.954-4.229l2.884-4.18
		c1.678,1.874,5.523,3.267,8.164,3.315c2.21,0.05,4.275-1.104,4.275-2.833c0-1.635-1.342-2.307-4.706-2.501
		c-4.467-0.335-9.803-1.97-9.803-7.351c0-5.477,5.672-7.397,9.994-7.397c3.701,0,6.486,0.72,9.225,3.122L685.102,295.171z"/>
	<path d="M701.497,282.2v6.725h6.533v5.045h-6.585v10.233c0,2.259,1.252,3.362,3.076,3.362c0.915,0,1.972-0.287,2.836-0.72
		l1.631,4.997c-1.678,0.672-3.074,0.961-4.851,1.008c-5.141,0.193-8.505-2.738-8.505-8.647V293.97h-4.421v-5.045h4.421v-6.101
		L701.497,282.2z"/>
</g>
</svg>
